<?xml version="1.0" standalone="no"?>
<!DOCTYPE svg PUBLIC "-//W3C//DTD SVG 20010904//EN"
 "http://www.w3.org/TR/2001/REC-SVG-20010904/DTD/svg10.dtd">
<svg version="1.0" xmlns="http://www.w3.org/2000/svg"
 width="72.000000pt" height="72.000000pt" viewBox="0 0 72.000000 72.000000"
 preserveAspectRatio="xMidYMid meet">
<metadata>
Created by potrace 1.11, written by Peter Selinger 2001-2013
</metadata>
<g transform="translate(0.000000,72.000000) scale(0.100000,-0.100000)"
fill="#000000" stroke="none">
<path d="M209 631 c-19 -20 -29 -40 -29 -60 0 -29 -2 -31 -40 -31 -27 0 -47
-7 -60 -20 -19 -19 -20 -33 -20 -205 0 -172 1 -186 20 -205 19 -19 33 -20 280
-20 247 0 261 1 280 20 19 19 20 33 20 205 0 172 -1 186 -20 205 -13 13 -33
20 -60 20 -38 0 -40 2 -40 31 0 41 -47 89 -88 89 -18 0 -43 -11 -61 -26 l-31
-26 -31 26 c-41 35 -83 34 -120 -3z m75 -37 c32 -12 13 -54 -24 -54 -16 0 -23
42 -9 51 17 11 14 10 33 3z m180 0 c32 -12 13 -54 -24 -54 -16 0 -23 42 -9 51
17 11 14 10 33 3z m-50 -169 c48 -65 49 -66 70 -48 11 10 22 18 23 19 2 0 -11
19 -28 42 l-31 42 76 0 76 0 0 -90 0 -90 -240 0 -240 0 0 90 0 90 76 0 76 0
-24 -32 c-39 -52 -39 -55 -14 -72 24 -15 25 -15 72 49 26 36 51 65 54 65 3 0
28 -29 54 -65z m186 -245 l0 -30 -240 0 -240 0 0 30 0 30 240 0 240 0 0 -30z"/>
</g>
</svg>
